<svg id="Layer_1" data-name="Layer 1" xmlns="http://www.w3.org/2000/svg" xmlns:xlink="http://www.w3.org/1999/xlink" viewBox="0 0 1000 785.85">
  <defs>
    <style>
      .cls-1 {
        fill: url(#linear-gradient);
      }

      .cls-2 {
        fill: #4935bc;
      }

      .cls-3 {
        fill: #fff;
      }

      .cls-4 {
        fill: #ff7f00;
      }
    </style>
    <linearGradient id="linear-gradient" x1="64.75" y1="498.87" x2="888.55" y2="498.87" gradientUnits="userSpaceOnUse">
      <stop offset="0" stop-color="#6244e0"/>
      <stop offset="1" stop-color="#765ce4"/>
    </linearGradient>
  </defs>
  <title>repeat-order-colour</title>
  <path class="cls-1" d="M850,615.3a186.18,186.18,0,0,1,38.55,4V271.15c-275.6,145.6-548.2-145.5-823.8,0v457.7c201.74-106.62,402,20.93,603,39.73C682.76,681.52,758.64,615.3,850,615.3Z" transform="translate(0 -164.45)"/>
  <path class="cls-2" d="M667.72,768.58c-201-18.82-401.19-146.34-602.92-39.73V271.15c275.6-145.5,548.2,145.6,823.8,0v348.2a183.86,183.86,0,0,1,64.7,27.46V271.15A64.67,64.67,0,0,0,858.4,214c-44,23.2-91.1,34.6-144.1,34.5-70.8,0-143.8-19.3-220.9-39.8-81.8-21.8-166.5-44.2-254.2-44.2-74.6,0-141.5,16.2-204.5,49.5A64.51,64.51,0,0,0,0,271.15v457.7a64.67,64.67,0,0,0,94.9,57.2c44-23.2,91.1-34.5,144.2-34.5,70.8,0,143.7,19.3,220.9,39.9,67.34,17.87,136.66,36.19,208,42.12a186.46,186.46,0,0,1-.27-65Z" transform="translate(0 -164.45)"/>
  <path class="cls-2" d="M305.9,612.05h0c-25.4-3.4-50.9-5.7-76.8-5.7a472,472,0,0,0-72.3,5.4l-37,5.7v.1a16.23,16.23,0,0,0,3.4,32.1,13.36,13.36,0,0,0,4-.6l34.6-5.4a443.84,443.84,0,0,1,67.3-5c25.7,0,47.5,2,73,5.5v-.1a14.92,14.92,0,0,0,2.1.2,16.14,16.14,0,0,0,1.7-32.2Z" transform="translate(0 -164.45)"/>
  <path class="cls-2" d="M828.7,353.35a18.54,18.54,0,0,0-4.8.8l-36,5.6a432.08,432.08,0,0,1-67.3,5.1c-23.9,0-47.6-2.2-71.5-5.4a17,17,0,0,0-4.6-.7,16.36,16.36,0,0,0-.7,32.7v.1c25.3,3.3,50.8,5.6,76.7,5.6a472,472,0,0,0,72.3-5.4l37.1-5.8v-.1a16.27,16.27,0,0,0-1.2-32.5Z" transform="translate(0 -164.45)"/>
  <path class="cls-3" d="M464,480.65h29.4c10.8,0,19.1,1.1,25,3.3s8.9,7.3,8.9,15.3a17,17,0,0,1-5.9,13.4c-3.9,3.4-9.1,5.1-15.4,5.1H471v3.3a75.06,75.06,0,0,1-9,36.5q-9,16.65-31.2,41.7c4.3-1.1,8.6-2,12.9-3s9.1-1.7,14.4-2.5a132.94,132.94,0,0,1,17.4-1.1c8.8,0,21.1,1,36.8,3.1s26.2,3.1,31.3,3.1a80.4,80.4,0,0,0,24.1-4c8.6-2.7,14-4,16.3-4,5.9,0,11.2,2.4,15.8,7.1a23.13,23.13,0,0,1,6.9,16.7c0,10.9-6.1,19.3-18.4,25.1a91.09,91.09,0,0,1-39.3,8.8c-8.5,0-32.8-4.6-72.7-13.8-1.1-.3-2.8-.8-5.3-1.6a66.9,66.9,0,0,0-9.3-2,99.37,99.37,0,0,0-13.2-.8,41,41,0,0,0-14.6,2.4c-4.2,1.6-11.5,4.5-21.8,8.7s-17.3,6.3-21,6.3c-5,0-9.9-2.3-14.7-6.8s-7.2-10.5-7.2-17.8a18,18,0,0,1,2.6-8.7,52.71,52.71,0,0,1,8.1-10.3,224.07,224.07,0,0,1,16.6-15.3c6.7-5.6,12.3-13.6,16.8-23.7s6.8-20.2,6.8-30c0-3.4-.7-9.2-2-17.3H401.5c-9.7,0-17-1.2-22-3.5s-7.4-7.1-7.4-14.2c0-12.9,8.3-19.3,25-19.3H409c-6.4-20.5-9.7-36.6-9.7-48.5,0-16.2,3.8-30.5,11.4-43.2s18.5-22.5,32.7-29.7,30.4-10.7,48.7-10.7c16.2,0,30,2,41.6,6a77.34,77.34,0,0,1,30.7,19.8c15.2,15.9,22.9,32.8,22.9,50.8a23.39,23.39,0,0,1-7.5,17.1,24.9,24.9,0,0,1-18.3,7.5c-12.7,0-21.2-7.1-25.4-21.3-3.8-13.7-9-23.7-15.7-30.2s-15.5-9.8-26.7-9.8c-12.1,0-21.8,3.9-29.3,11.7s-11.1,17.9-11.1,30.2a87.68,87.68,0,0,0,2.4,21c1.6,6.5,4.3,16.2,8.3,29.1Z" transform="translate(0 -164.45)"/>
  <circle class="cls-4" cx="850" cy="635.85" r="150"/>
  <path class="cls-3" d="M850,862.38h0a62,62,0,0,1-62.08-62.08,59.17,59.17,0,0,1,7.27-29.08l-15-15a81.36,81.36,0,0,0-13,44.08A83.08,83.08,0,0,0,850,883.15v31l41.19-41.65L850,831.34Z" transform="translate(0 -164.45)"/>
  <path class="cls-3" d="M850,717.45v-31l-41.19,41.65L850,769.26v-31a61.88,61.88,0,0,1,62.08,62.08,59.17,59.17,0,0,1-7.27,29.08l15,15a81.36,81.36,0,0,0,13-44.08A83.08,83.08,0,0,0,850,717.45Z" transform="translate(0 -164.45)"/>
</svg>
